<mxfile host="app.diagrams.net" agent="Mozilla/5.0 (Windows NT 10.0; Win64; x64) AppleWebKit/537.36 (KHTML, like Gecko) Chrome/130.0.0.0 Safari/537.36 Edg/130.0.0.0" version="24.8.3">
  <diagram id="R2lEEEUBdFMjLlhIrx00" name="Page-1">
    <mxGraphModel dx="1042" dy="1678" grid="1" gridSize="10" guides="1" tooltips="1" connect="1" arrows="1" fold="1" page="1" pageScale="1" pageWidth="850" pageHeight="1100" math="0" shadow="0" extFonts="Permanent Marker^https://fonts.googleapis.com/css?family=Permanent+Marker">
      <root>
        <mxCell id="0" />
        <mxCell id="1" parent="0" />
        <mxCell id="H-ibBraInIeXF9db4h3r-7" value="Jugadores" style="whiteSpace=wrap;html=1;align=center;" parent="1" vertex="1">
          <mxGeometry x="150" y="280" width="100" height="40" as="geometry" />
        </mxCell>
        <mxCell id="H-ibBraInIeXF9db4h3r-8" value="Clubes" style="whiteSpace=wrap;html=1;align=center;" parent="1" vertex="1">
          <mxGeometry x="150" y="120" width="100" height="40" as="geometry" />
        </mxCell>
        <mxCell id="H-ibBraInIeXF9db4h3r-9" value="Torneos" style="whiteSpace=wrap;html=1;align=center;" parent="1" vertex="1">
          <mxGeometry x="440" y="120" width="100" height="40" as="geometry" />
        </mxCell>
        <mxCell id="H-ibBraInIeXF9db4h3r-11" value="Equipos" style="whiteSpace=wrap;html=1;align=center;" parent="1" vertex="1">
          <mxGeometry x="150" y="460" width="100" height="40" as="geometry" />
        </mxCell>
        <mxCell id="H-ibBraInIeXF9db4h3r-13" value="Participan" style="shape=rhombus;perimeter=rhombusPerimeter;whiteSpace=wrap;html=1;align=center;" parent="1" vertex="1">
          <mxGeometry x="290" y="270" width="120" height="60" as="geometry" />
        </mxCell>
        <mxCell id="H-ibBraInIeXF9db4h3r-14" value="pertenecen" style="shape=rhombus;perimeter=rhombusPerimeter;whiteSpace=wrap;html=1;align=center;" parent="1" vertex="1">
          <mxGeometry x="140" y="200" width="120" height="60" as="geometry" />
        </mxCell>
        <mxCell id="H-ibBraInIeXF9db4h3r-15" value="conforman" style="shape=rhombus;perimeter=rhombusPerimeter;whiteSpace=wrap;html=1;align=center;" parent="1" vertex="1">
          <mxGeometry x="140" y="360" width="120" height="60" as="geometry" />
        </mxCell>
        <mxCell id="H-ibBraInIeXF9db4h3r-16" value="Partidas_Corbillon" style="whiteSpace=wrap;html=1;align=center;" parent="1" vertex="1">
          <mxGeometry x="450" y="460" width="100" height="40" as="geometry" />
        </mxCell>
        <mxCell id="H-ibBraInIeXF9db4h3r-17" value="tienen" style="shape=rhombus;perimeter=rhombusPerimeter;whiteSpace=wrap;html=1;align=center;" parent="1" vertex="1">
          <mxGeometry x="430" y="190" width="120" height="60" as="geometry" />
        </mxCell>
        <mxCell id="H-ibBraInIeXF9db4h3r-18" value="Arbitro" style="whiteSpace=wrap;html=1;align=center;" parent="1" vertex="1">
          <mxGeometry x="800" y="340" width="100" height="40" as="geometry" />
        </mxCell>
        <mxCell id="H-ibBraInIeXF9db4h3r-19" value="arbitrean" style="shape=rhombus;perimeter=rhombusPerimeter;whiteSpace=wrap;html=1;align=center;" parent="1" vertex="1">
          <mxGeometry x="620" y="330" width="120" height="60" as="geometry" />
        </mxCell>
        <mxCell id="H-ibBraInIeXF9db4h3r-20" value="administran" style="shape=rhombus;perimeter=rhombusPerimeter;whiteSpace=wrap;html=1;align=center;" parent="1" vertex="1">
          <mxGeometry x="430" y="30" width="120" height="60" as="geometry" />
        </mxCell>
        <mxCell id="H-ibBraInIeXF9db4h3r-21" value="Organizador" style="whiteSpace=wrap;html=1;align=center;" parent="1" vertex="1">
          <mxGeometry x="440" y="-50" width="100" height="40" as="geometry" />
        </mxCell>
        <mxCell id="H-ibBraInIeXF9db4h3r-24" value="Partidas" style="whiteSpace=wrap;html=1;align=center;" parent="1" vertex="1">
          <mxGeometry x="440" y="280" width="100" height="40" as="geometry" />
        </mxCell>
        <mxCell id="H-ibBraInIeXF9db4h3r-26" value="Participan" style="shape=rhombus;perimeter=rhombusPerimeter;whiteSpace=wrap;html=1;align=center;" parent="1" vertex="1">
          <mxGeometry x="290" y="450" width="120" height="60" as="geometry" />
        </mxCell>
        <mxCell id="BaAoWJ-NTWG8u6hRJiE0-1" value="" style="endArrow=none;html=1;rounded=0;exitX=0.5;exitY=1;exitDx=0;exitDy=0;entryX=0.5;entryY=0;entryDx=0;entryDy=0;" parent="1" source="H-ibBraInIeXF9db4h3r-14" target="H-ibBraInIeXF9db4h3r-7" edge="1">
          <mxGeometry relative="1" as="geometry">
            <mxPoint x="40" y="290" as="sourcePoint" />
            <mxPoint x="200" y="290" as="targetPoint" />
          </mxGeometry>
        </mxCell>
        <mxCell id="P1uDP8DkbhYU_gNMjC_O-4" value="N" style="edgeLabel;html=1;align=center;verticalAlign=middle;resizable=0;points=[];" vertex="1" connectable="0" parent="BaAoWJ-NTWG8u6hRJiE0-1">
          <mxGeometry x="0.06" y="-1" relative="1" as="geometry">
            <mxPoint as="offset" />
          </mxGeometry>
        </mxCell>
        <mxCell id="BaAoWJ-NTWG8u6hRJiE0-2" value="" style="endArrow=none;html=1;rounded=0;entryX=0.5;entryY=1;entryDx=0;entryDy=0;exitX=0.5;exitY=0;exitDx=0;exitDy=0;" parent="1" source="H-ibBraInIeXF9db4h3r-14" target="H-ibBraInIeXF9db4h3r-8" edge="1">
          <mxGeometry relative="1" as="geometry">
            <mxPoint x="450" y="280" as="sourcePoint" />
            <mxPoint x="610" y="280" as="targetPoint" />
          </mxGeometry>
        </mxCell>
        <mxCell id="P1uDP8DkbhYU_gNMjC_O-3" value="1" style="edgeLabel;html=1;align=center;verticalAlign=middle;resizable=0;points=[];" vertex="1" connectable="0" parent="BaAoWJ-NTWG8u6hRJiE0-2">
          <mxGeometry x="0.47" y="2" relative="1" as="geometry">
            <mxPoint as="offset" />
          </mxGeometry>
        </mxCell>
        <mxCell id="BaAoWJ-NTWG8u6hRJiE0-3" value="" style="endArrow=none;html=1;rounded=0;exitX=1;exitY=0.5;exitDx=0;exitDy=0;entryX=0;entryY=0.5;entryDx=0;entryDy=0;" parent="1" source="H-ibBraInIeXF9db4h3r-7" target="H-ibBraInIeXF9db4h3r-13" edge="1">
          <mxGeometry relative="1" as="geometry">
            <mxPoint x="450" y="280" as="sourcePoint" />
            <mxPoint x="610" y="280" as="targetPoint" />
          </mxGeometry>
        </mxCell>
        <mxCell id="P1uDP8DkbhYU_gNMjC_O-1" value="N" style="edgeLabel;html=1;align=center;verticalAlign=middle;resizable=0;points=[];" vertex="1" connectable="0" parent="BaAoWJ-NTWG8u6hRJiE0-3">
          <mxGeometry x="-0.41" relative="1" as="geometry">
            <mxPoint as="offset" />
          </mxGeometry>
        </mxCell>
        <mxCell id="BaAoWJ-NTWG8u6hRJiE0-4" value="" style="endArrow=none;html=1;rounded=0;exitX=0.5;exitY=1;exitDx=0;exitDy=0;entryX=0.5;entryY=0;entryDx=0;entryDy=0;" parent="1" source="H-ibBraInIeXF9db4h3r-7" target="H-ibBraInIeXF9db4h3r-15" edge="1">
          <mxGeometry relative="1" as="geometry">
            <mxPoint x="450" y="280" as="sourcePoint" />
            <mxPoint x="610" y="280" as="targetPoint" />
          </mxGeometry>
        </mxCell>
        <mxCell id="P1uDP8DkbhYU_gNMjC_O-5" value="N" style="edgeLabel;html=1;align=center;verticalAlign=middle;resizable=0;points=[];" vertex="1" connectable="0" parent="BaAoWJ-NTWG8u6hRJiE0-4">
          <mxGeometry x="-0.37" y="-1" relative="1" as="geometry">
            <mxPoint as="offset" />
          </mxGeometry>
        </mxCell>
        <mxCell id="BaAoWJ-NTWG8u6hRJiE0-5" value="" style="endArrow=none;html=1;rounded=0;exitX=0.5;exitY=0;exitDx=0;exitDy=0;entryX=0.5;entryY=1;entryDx=0;entryDy=0;" parent="1" source="H-ibBraInIeXF9db4h3r-11" target="H-ibBraInIeXF9db4h3r-15" edge="1">
          <mxGeometry relative="1" as="geometry">
            <mxPoint x="450" y="280" as="sourcePoint" />
            <mxPoint x="610" y="280" as="targetPoint" />
          </mxGeometry>
        </mxCell>
        <mxCell id="P1uDP8DkbhYU_gNMjC_O-7" value="1" style="edgeLabel;html=1;align=center;verticalAlign=middle;resizable=0;points=[];" vertex="1" connectable="0" parent="BaAoWJ-NTWG8u6hRJiE0-5">
          <mxGeometry x="-0.43" y="1" relative="1" as="geometry">
            <mxPoint as="offset" />
          </mxGeometry>
        </mxCell>
        <mxCell id="BaAoWJ-NTWG8u6hRJiE0-6" value="" style="endArrow=none;html=1;rounded=0;exitX=1;exitY=0.5;exitDx=0;exitDy=0;entryX=0;entryY=0.5;entryDx=0;entryDy=0;" parent="1" source="H-ibBraInIeXF9db4h3r-26" target="H-ibBraInIeXF9db4h3r-16" edge="1">
          <mxGeometry relative="1" as="geometry">
            <mxPoint x="450" y="280" as="sourcePoint" />
            <mxPoint x="610" y="280" as="targetPoint" />
          </mxGeometry>
        </mxCell>
        <mxCell id="P1uDP8DkbhYU_gNMjC_O-9" value="N" style="edgeLabel;html=1;align=center;verticalAlign=middle;resizable=0;points=[];" vertex="1" connectable="0" parent="BaAoWJ-NTWG8u6hRJiE0-6">
          <mxGeometry x="0.24" y="-3" relative="1" as="geometry">
            <mxPoint as="offset" />
          </mxGeometry>
        </mxCell>
        <mxCell id="BaAoWJ-NTWG8u6hRJiE0-7" value="" style="endArrow=none;html=1;rounded=0;exitX=1;exitY=0.5;exitDx=0;exitDy=0;entryX=0;entryY=0.5;entryDx=0;entryDy=0;" parent="1" source="H-ibBraInIeXF9db4h3r-11" target="H-ibBraInIeXF9db4h3r-26" edge="1">
          <mxGeometry relative="1" as="geometry">
            <mxPoint x="450" y="280" as="sourcePoint" />
            <mxPoint x="610" y="280" as="targetPoint" />
          </mxGeometry>
        </mxCell>
        <mxCell id="P1uDP8DkbhYU_gNMjC_O-8" value="N" style="edgeLabel;html=1;align=center;verticalAlign=middle;resizable=0;points=[];" vertex="1" connectable="0" parent="BaAoWJ-NTWG8u6hRJiE0-7">
          <mxGeometry x="-0.26" y="1" relative="1" as="geometry">
            <mxPoint as="offset" />
          </mxGeometry>
        </mxCell>
        <mxCell id="BaAoWJ-NTWG8u6hRJiE0-8" value="" style="endArrow=none;html=1;rounded=0;exitX=1;exitY=0.5;exitDx=0;exitDy=0;entryX=0;entryY=0.5;entryDx=0;entryDy=0;" parent="1" source="H-ibBraInIeXF9db4h3r-13" target="H-ibBraInIeXF9db4h3r-24" edge="1">
          <mxGeometry relative="1" as="geometry">
            <mxPoint x="450" y="280" as="sourcePoint" />
            <mxPoint x="610" y="280" as="targetPoint" />
          </mxGeometry>
        </mxCell>
        <mxCell id="P1uDP8DkbhYU_gNMjC_O-2" value="N" style="edgeLabel;html=1;align=center;verticalAlign=middle;resizable=0;points=[];" vertex="1" connectable="0" parent="BaAoWJ-NTWG8u6hRJiE0-8">
          <mxGeometry x="0.32" y="-1" relative="1" as="geometry">
            <mxPoint as="offset" />
          </mxGeometry>
        </mxCell>
        <mxCell id="BaAoWJ-NTWG8u6hRJiE0-9" value="" style="endArrow=none;html=1;rounded=0;entryX=0;entryY=0.5;entryDx=0;entryDy=0;exitX=1;exitY=0.5;exitDx=0;exitDy=0;edgeStyle=orthogonalEdgeStyle;" parent="1" source="H-ibBraInIeXF9db4h3r-24" target="H-ibBraInIeXF9db4h3r-19" edge="1">
          <mxGeometry relative="1" as="geometry">
            <mxPoint x="450" y="280" as="sourcePoint" />
            <mxPoint x="610" y="280" as="targetPoint" />
          </mxGeometry>
        </mxCell>
        <mxCell id="P1uDP8DkbhYU_gNMjC_O-11" value="N" style="edgeLabel;html=1;align=center;verticalAlign=middle;resizable=0;points=[];" vertex="1" connectable="0" parent="BaAoWJ-NTWG8u6hRJiE0-9">
          <mxGeometry x="-0.7314" y="-1" relative="1" as="geometry">
            <mxPoint as="offset" />
          </mxGeometry>
        </mxCell>
        <mxCell id="BaAoWJ-NTWG8u6hRJiE0-10" value="" style="endArrow=none;html=1;rounded=0;entryX=0;entryY=0.5;entryDx=0;entryDy=0;exitX=1;exitY=0.5;exitDx=0;exitDy=0;" parent="1" source="H-ibBraInIeXF9db4h3r-19" target="H-ibBraInIeXF9db4h3r-18" edge="1">
          <mxGeometry relative="1" as="geometry">
            <mxPoint x="450" y="280" as="sourcePoint" />
            <mxPoint x="610" y="280" as="targetPoint" />
          </mxGeometry>
        </mxCell>
        <mxCell id="P1uDP8DkbhYU_gNMjC_O-10" value="1" style="edgeLabel;html=1;align=center;verticalAlign=middle;resizable=0;points=[];" vertex="1" connectable="0" parent="BaAoWJ-NTWG8u6hRJiE0-10">
          <mxGeometry x="0.5267" y="-1" relative="1" as="geometry">
            <mxPoint as="offset" />
          </mxGeometry>
        </mxCell>
        <mxCell id="BaAoWJ-NTWG8u6hRJiE0-11" value="" style="endArrow=none;html=1;rounded=0;exitX=0.5;exitY=1;exitDx=0;exitDy=0;entryX=0.5;entryY=0;entryDx=0;entryDy=0;" parent="1" source="H-ibBraInIeXF9db4h3r-17" target="H-ibBraInIeXF9db4h3r-24" edge="1">
          <mxGeometry relative="1" as="geometry">
            <mxPoint x="450" y="280" as="sourcePoint" />
            <mxPoint x="610" y="280" as="targetPoint" />
          </mxGeometry>
        </mxCell>
        <mxCell id="P1uDP8DkbhYU_gNMjC_O-13" value="N" style="edgeLabel;html=1;align=center;verticalAlign=middle;resizable=0;points=[];" vertex="1" connectable="0" parent="BaAoWJ-NTWG8u6hRJiE0-11">
          <mxGeometry x="0.1733" y="3" relative="1" as="geometry">
            <mxPoint as="offset" />
          </mxGeometry>
        </mxCell>
        <mxCell id="BaAoWJ-NTWG8u6hRJiE0-12" value="" style="endArrow=none;html=1;rounded=0;exitX=0.5;exitY=0;exitDx=0;exitDy=0;entryX=0.5;entryY=1;entryDx=0;entryDy=0;" parent="1" source="H-ibBraInIeXF9db4h3r-17" target="H-ibBraInIeXF9db4h3r-9" edge="1">
          <mxGeometry relative="1" as="geometry">
            <mxPoint x="450" y="280" as="sourcePoint" />
            <mxPoint x="610" y="280" as="targetPoint" />
          </mxGeometry>
        </mxCell>
        <mxCell id="P1uDP8DkbhYU_gNMjC_O-12" value="1" style="edgeLabel;html=1;align=center;verticalAlign=middle;resizable=0;points=[];" vertex="1" connectable="0" parent="BaAoWJ-NTWG8u6hRJiE0-12">
          <mxGeometry x="0.2933" y="-2" relative="1" as="geometry">
            <mxPoint as="offset" />
          </mxGeometry>
        </mxCell>
        <mxCell id="BaAoWJ-NTWG8u6hRJiE0-13" value="" style="endArrow=none;html=1;rounded=0;exitX=0.5;exitY=0;exitDx=0;exitDy=0;entryX=0.5;entryY=1;entryDx=0;entryDy=0;" parent="1" source="H-ibBraInIeXF9db4h3r-9" target="H-ibBraInIeXF9db4h3r-20" edge="1">
          <mxGeometry relative="1" as="geometry">
            <mxPoint x="450" y="280" as="sourcePoint" />
            <mxPoint x="610" y="280" as="targetPoint" />
          </mxGeometry>
        </mxCell>
        <mxCell id="P1uDP8DkbhYU_gNMjC_O-15" value="N" style="edgeLabel;html=1;align=center;verticalAlign=middle;resizable=0;points=[];" vertex="1" connectable="0" parent="BaAoWJ-NTWG8u6hRJiE0-13">
          <mxGeometry x="0.1867" y="-1" relative="1" as="geometry">
            <mxPoint as="offset" />
          </mxGeometry>
        </mxCell>
        <mxCell id="BaAoWJ-NTWG8u6hRJiE0-14" value="" style="endArrow=none;html=1;rounded=0;exitX=0.5;exitY=0;exitDx=0;exitDy=0;entryX=0.5;entryY=1;entryDx=0;entryDy=0;" parent="1" source="H-ibBraInIeXF9db4h3r-20" target="H-ibBraInIeXF9db4h3r-21" edge="1">
          <mxGeometry relative="1" as="geometry">
            <mxPoint x="500" y="130" as="sourcePoint" />
            <mxPoint x="500" y="100" as="targetPoint" />
          </mxGeometry>
        </mxCell>
        <mxCell id="P1uDP8DkbhYU_gNMjC_O-14" value="N" style="edgeLabel;html=1;align=center;verticalAlign=middle;resizable=0;points=[];" vertex="1" connectable="0" parent="BaAoWJ-NTWG8u6hRJiE0-14">
          <mxGeometry x="0.44" relative="1" as="geometry">
            <mxPoint as="offset" />
          </mxGeometry>
        </mxCell>
      </root>
    </mxGraphModel>
  </diagram>
</mxfile>
